<svg width="510" height="433" viewBox="0 0 510 433" fill="none" xmlns="http://www.w3.org/2000/svg">
<path d="M376.501 318.5L374.916 320.433L378.522 317.029L376.501 318.5ZM37.1476 125.891L41.2628 145.884L61.2561 141.769L57.1409 121.776L37.1476 125.891ZM505.305 146.181C510.689 137.802 510.292 128.003 505.946 117.916C501.621 107.876 493.288 97.2643 482.238 86.7415C460.113 65.6712 426.53 44.4286 390.113 28.3162C353.703 12.2071 314.21 1.11616 280.23 0.559561C246.283 0.00351667 217.191 9.99431 202.798 36.8177L207.204 39.1818C220.311 14.7552 247.036 5.01653 280.148 5.55889C313.225 6.1007 352.033 16.9361 388.09 32.8887C424.139 48.8381 457.19 69.7926 478.79 90.3623C489.603 100.66 497.405 110.728 501.354 119.894C505.282 129.012 505.298 136.942 501.098 143.479L505.305 146.181ZM202.798 36.8177C188.649 63.1856 189.206 89.6974 198.725 115.596C208.208 141.398 226.596 166.647 248.2 190.792C269.816 214.949 294.83 238.19 317.678 259.891C340.596 281.659 361.263 301.814 374.48 319.971L378.522 317.029C364.989 298.436 343.968 277.966 321.121 256.265C298.203 234.497 273.373 211.425 251.926 187.458C230.469 163.477 212.576 138.789 203.418 113.872C194.296 89.052 193.853 64.0638 207.204 39.1818L202.798 36.8177ZM378.085 316.566C304.406 256.192 238.445 231.737 182.936 229.538C127.409 227.338 82.5731 247.421 51.2392 275.684C19.9673 303.89 2.02279 340.364 0.462593 371.105C-0.318606 386.497 3.00791 400.608 11.032 411.453C19.0894 422.344 31.6885 429.677 48.8941 431.811L49.5097 426.849C33.4652 424.859 22.183 418.119 15.0516 408.48C7.8869 398.795 4.71719 385.919 5.45617 371.358C6.93632 342.194 24.0977 306.898 54.5881 279.396C85.0163 251.951 128.599 232.389 182.738 234.534C236.894 236.679 301.845 260.558 374.916 320.433L378.085 316.566ZM48.8941 431.811C82.8318 436.022 110.568 426.226 130.317 407.25C150.019 388.319 161.571 360.451 163.634 328.805C167.762 265.493 133.987 186.677 50.577 131.742L47.8268 135.918C129.917 189.983 162.642 267.167 158.645 328.48C156.645 359.147 145.479 385.748 126.853 403.645C108.274 421.497 82.0721 430.889 49.5097 426.849L48.8941 431.811Z" fill="#FFE3D4"/>
</svg>
