<svg width="432" height="405" viewBox="0 0 432 405" fill="none" xmlns="http://www.w3.org/2000/svg">
<path d="M296.16 394.072L285.747 376.515L268.19 386.928L278.603 404.485L296.16 394.072ZM127.822 5.475C149.953 8.62867 234.187 20.7357 307.799 40.9012C344.649 50.996 378.593 63.0475 400.754 76.8826C411.853 83.811 419.723 91.022 423.648 98.4119C427.474 105.614 427.642 113.129 423.003 121.261L427.346 123.739C432.832 114.121 432.696 104.786 428.064 96.0664C423.532 87.5344 414.792 79.7513 403.402 72.6412C380.589 58.3992 346.05 46.1957 309.12 36.0789C235.171 15.8211 150.655 3.67811 128.527 0.525002L127.822 5.475ZM423.003 121.261C411.978 140.59 386.125 149.841 351.179 153.411C316.43 156.961 273.733 154.804 230.311 152.311C186.996 149.824 142.97 147.003 105.91 149.325C87.3688 150.486 70.454 152.939 56.168 157.415C41.8878 161.889 30.0669 168.435 21.9183 177.898L25.7071 181.161C33.0364 172.65 43.9047 166.496 57.6628 162.186C71.4152 157.878 87.8882 155.463 106.222 154.315C142.912 152.017 186.586 154.809 230.025 157.303C273.356 159.791 316.468 161.983 351.687 158.385C386.708 154.808 414.981 145.416 427.346 123.739L423.003 121.261ZM21.9183 177.898C6.14386 196.217 -1.27252 215.114 0.857694 234.233C2.98285 253.307 14.5502 272.047 35.5534 290.217C77.4902 326.495 158.053 361.375 281.556 392.922L282.794 388.078C159.396 356.557 79.8216 321.901 38.8246 286.435C18.361 268.733 7.76219 251.049 5.82694 233.68C3.89676 216.356 10.5257 198.791 25.7071 181.161L21.9183 177.898Z" fill="#D1FFBD"/>
</svg>
