<?xml version="1.0" encoding="utf-8"?>
<!-- Generator: Adobe Illustrator 19.1.0, SVG Export Plug-In . SVG Version: 6.00 Build 0)  -->
<svg version="1.1" id="Layer_1" xmlns="http://www.w3.org/2000/svg" xmlns:xlink="http://www.w3.org/1999/xlink" x="0px" y="0px"
	 viewBox="0 0 658.356 335.9832" enable-background="new 0 0 658.356 335.9832" xml:space="preserve">
<g>
	<g>
		<path fill-rule="evenodd" clip-rule="evenodd" fill="#FFFFFF" d="M480.7109,198.9942
			c4.8477-3.2314,8.0791-130.8653,4.8477-134.0967c-3.2324-3.2315-38.7754-6.46-38.7754,1.6172
			c0,8.0771-6.4619,126.0175-4.8467,129.248C443.5527,198.9942,475.8643,202.2246,480.7109,198.9942z M302.6724,299.7197
			c0,0,2.0136,0.4717,3.0761-2.2431c0.3858-0.9883-13.6694-26.8174-14.5947-26.5606c-1.5244,0.42-3.6743,0.8848-3.7617,2.5479
			C287.248,276.1543,299.7861,298.333,302.6724,299.7197z M81.2915,248.4756c-31.2231-0.6836-39.2227,22.75-39.2227,46.2842
			c0,23.5322,12.191,39.123,31.8023,39.123c27.8086,0,29.3071-16.7861,29.873-28.0234c0.1314-2.6172-12.957-3.0254-14.4209-1.0723
			c-1.4628,1.9492-2.2812,13.7989-13.5229,12.7237c-12.167-1.1661-13.8809-14.6983-14.312-24.6114
			c-0.4732-10.8769,3.293-26.4326,17.4507-27.1631c11.3036-0.5898,12.1718,12.4493,11.6757,14.9034
			c-0.6933,3.4394,6.9869,1.7343,13.4263,2.3554C106.999,283.2793,108.0449,249.0635,81.2915,248.4756z M80.0435,203.8399
			c17.771,0,85.1997-187.8516,82.3945-192.2569c-3.3765-5.3003-24.2339-16.1548-30.6958-6.4619
			c-6.4629,9.6934-45.2373,130.8628-51.6987,121.1685C73.5806,116.5977,41.2681,8.354,31.5752,8.354
			c-9.6943,0-24.3662-0.8584-30.6963,9.6906C-3.9683,26.124,62.271,203.8399,80.0435,203.8399z M414.4727,194.1455
			c3.2303-3.2314,8.0771-32.3105,0-32.3105c-8.0791,0-54.9307,0-58.1622-4.8487c-3.2304-4.8457,0-147.0185-3.2304-148.6323
			c-3.2324-1.6177-37.1602-4.8486-37.1602,3.229c0,8.0777-6.4619,169.6377-3.2303,179.3311
			C315.9199,200.6074,411.2402,197.377,414.4727,194.1455z M485.5586,43.8955c1.6162-4.8471,8.0791-32.3125,3.2314-35.5415
			c-4.8466-3.2328-35.5429-6.4619-37.1601,0c-1.6143,6.4605-4.8467,29.0777-3.2295,32.3101
			C450.0156,43.8955,483.9434,48.7407,485.5586,43.8955z M350.8193,283.419c-0.6181-0.3135-10.8095,12.1006-10.2675,13.4326
			c0.3652,0.8926,0.7168,2.3262,1.5594,2.2705c1.5782-0.1045,11.0498-13.5899,10.6075-14.8535
			C352.418,283.4082,351.7168,283.8672,350.8193,283.419z M318.0103,293.8087c0.5356-0.8848-2.0298-19.6933-3.4473-19.8789
			c-1.417-0.1826-2.4785-0.541-3.0156,0.3399c-0.5367,0.8846,2.9189,19.164,3.27,19.8759
			C315.168,294.8555,317.4736,294.6885,318.0103,293.8087z M498.0635,251.5283c-24.8867,1.9131-37.3291,11.4873-35.416,43.0762
			c1.5058,24.8584,9.4218,36.373,32.5459,36.373c28.7324,0,37.3311-21.0596,38.289-38.2891
			C534.4395,275.4561,526.7139,249.3223,498.0635,251.5283z M499.6553,312.4171c-10.3838,1.5967-17.5752-7.1924-16.7754-19.1709
			c0.8008-11.9844-0.7998-19.9717,13.581-19.9717c14.3789,0,16.7745,9.584,16.7745,19.17
			C513.2354,302.0313,510.04,310.8184,499.6553,312.4171z M422.4395,315.4697c-6.3926,0,9.6601-11.6787,21.6152-23.0029
			c15.1777-14.3808,5.5918-39.9433-11.9815-42.3398c-17.5752-2.3955-36.2255,8.7676-37.6474,10.0459
			c-1.4209,1.2802-1.0362,14.9814,1.0967,15.9775c1.3867,0.6494,22.498-12.9229,31.3398-8.9121
			c4.9209,2.2314,4.4785,6.5332,3.6123,11.6455c-1.418,8.376-31.3369,31.6943-35.1279,35.8828
			c-2.7139,2.9962-2.3096,12.5645-1.1377,16.0225c1.6396,4.8457,54.4502,0,57.6445-0.7979
			c3.1953-0.7998,2.3975-12.7832,0.7988-15.9775C451.0537,310.8184,428.8291,315.4697,422.4395,315.4697z M557.1719,246.1123
			c-2.1201,0.424-15.3242,6.0293-20.3448,9.9865c-1.9912,1.5663,0.0459,7.9199,1.1719,8.3876
			c1.125,0.4688,9.5879-3.1962,11.1846,0.7999c1.5977,3.9941,0,59.1132,0,62.3066c0,3.1963,13.5791,4.7939,17.5732,2.3984
			c3.9942-2.3984,1.5987-82.2812-0.7968-83.8789C563.5625,244.5156,561.166,245.3125,557.1719,246.1123z M585.7256,10.1485
			c-42.0352,0-67.8555,64.625-69.4697,96.937c-1.6172,32.3091,6.463,96.935,66.2382,98.5512
			c59.7774,1.6143,74.3184-64.6264,74.3184-101.7832C656.8125,87.6173,651.9648,10.1485,585.7256,10.1485z M609.959,107.0855
			c-1.6152,24.2324-9.6914,48.4663-24.2334,48.4663c-14.5401,0-24.2344-22.6182-22.6182-46.8535
			c1.6153-24.2334,8.0781-40.3887,27.4649-42.0035C600.3662,65.8784,611.2676,87.4717,609.959,107.0855z M366.0771,294.9171
			c-2.1728-0.584-17.7763,9.9658-17.8378,11.5225c-0.0391,1.0576,1.5117,2.7939,2.7509,3.5703
			c0.6807,0.4258,15.7481-8.8819,16.8604-10.1328C368.9639,298.6221,368.25,295.499,366.0771,294.9171z M151.0898,255.1602
			c-18.4502,0-32.7055,10.9013-34.3837,35.2207c-1.6773,24.3213,16.7714,41.0937,32.707,41.0937
			c15.9331,0,32.706-18.4511,32.706-35.2256C182.1191,279.4824,169.5391,255.1602,151.0898,255.1602z M164.8569,295
			c-0.1381,7.499-3.0669,18.2031-15.1328,18.8164c-6.7905,0.3448-16.3623-8.1816-15.5439-20.4521
			c0.8178-12.2725,5.2964-21.7598,14.1118-21.6817C159.9263,271.7901,165.0625,283.9561,164.8569,295z M230.2939,5.1212
			c-12.9248,1.6152-103.8886,190.7831-101.7832,197.1035c1.6153,4.8467,35.5435,1.6153,42.0059,1.6153
			c6.4614,0,22.6177-51.6993,27.4653-53.3164c4.8472-1.6138,22.6187,0,30.6964,1.6171
			c8.0781,1.6143,11.3091,38.7735,16.1558,46.8536c4.8472,8.0771,37.5166,5.6552,40.5327,3.6679
			C291.8389,198.3926,243.2178,3.5054,230.2939,5.1212z M228.6782,114.9824c-6.4624,1.6153-11.3091,0-19.3872,0
			c-8.0781,0,12.9248-33.9282,16.1558-37.1587C228.6782,74.5918,235.1406,113.3667,228.6782,114.9824z M238.7305,252.7755
			c-3.1367,0.6396-2.1011,39.2842-5.4551,39.2842c-3.355,0-27.6748-41.0928-34.3848-37.7383
			c-6.7085,3.3535-5.9717,68.168-5.2827,72.3867c0.2022,1.2383,14.5083,1.583,17.0239,1.583c2.5157,0-0.8774-36.7246,2.4766-32.5332
			c3.3545,4.1953,26.7124,34.6133,33.4229,33.7744c6.708-0.8398,8.5273-71.6328,6.1362-75.0791
			C250.4023,251.1934,241.9365,252.124,238.7305,252.7755z M325.0674,301.6846c-28.3584-1.29-30.0645,19.21-29.0029,20.6221
			c2.8603,3.8164,50.705,2.3359,51.5615,1.2921C349.1855,321.6924,346.959,302.6787,325.0674,301.6846z M283.749,294.876
			c-1.289-0.6416-3.7231,0.6436-3.7231,2.5762c0,1.9336,12.2295,12.5429,13.5351,12.247c0.8882-0.2002,1.9849-1.8769,2.3536-3.0771
			C296.1167,305.9619,285.0386,295.5244,283.749,294.876z M335.8027,262.213c-1.5205,0.3438-9.1689,31.8721-8.6816,32.3223
			c0.8828,0.8125,1.7227,1.0322,3.4355,0.8896c1.8321-0.1494,9.5176-29.8613,8.9659-32.7832
			C339.5225,262.6416,337.3486,261.8584,335.8027,262.213z"/>
	</g>
</g>
<path fill="#FFFFFF" d="M643.8483,297.7816c-2.304-15.743-17.0583-20.3069-30.9116-18.6793
	c4.6603-6.507,9.7017-13.7146,14.73-19.8014c1.5833-1.9167,2.2708-7.5-0.2292-10c-5.5-9.625-9.0461-5.1642-12.1347-1.4731
	c-12.6083,15.0674-25.2189,30.4904-31.9353,49.2151c-3.3131,9.2366-4.516,20.3435,2.8059,28.1622
	c6.1161,6.5314,17.4299,8.2033,25.8812,8.7929c10.4842,0.7316,19.6946-3.0593,25.6699-11.8916
	C642.4645,315.1002,645.0792,306.1935,643.8483,297.7816z M621.5256,316.1856c-3.3412,2.4094-7.8647,1.8263-11.7464,1.3435
	c-2.0242-0.2517-5.2595-0.5546-8.0451-1.2606c-0.272-0.1932-0.5515-0.383-0.8541-0.5612c-2.4365-1.4352-0.7108-9.983,0.4275-13.0323
	c2.0745-5.5573,9.1604-7.049,14.5373-7.7003c3.1041-0.376,8.0382-0.6355,10.7224,1.3962c-0.0969-0.0732,1.6125,2.6765,1.6568,2.8647
	C629.473,304.5353,625.7632,313.1299,621.5256,316.1856z"/>
<g>
</g>
<g>
</g>
<g>
</g>
<g>
</g>
<g>
</g>
<g>
</g>
</svg>
