<?xml version="1.0" encoding="utf-8"?>
<!-- Generator: Adobe Illustrator 16.2.1, SVG Export Plug-In . SVG Version: 6.00 Build 0)  -->
<!DOCTYPE svg PUBLIC "-//W3C//DTD SVG 1.1//EN" "http://www.w3.org/Graphics/SVG/1.1/DTD/svg11.dtd">
<svg version="1.1" id="Layer_1" xmlns="http://www.w3.org/2000/svg" xmlns:xlink="http://www.w3.org/1999/xlink" x="0px" y="0px"
	 width="360px" height="183px" viewBox="0 0 360 183" enable-background="new 0 0 360 183" xml:space="preserve">
<g>
	<g>
		<path fill="#FFFFFF" d="M183.886,143.568c-0.834,0.189-5.03,17.533-4.763,17.781c0.484,0.446,0.945,0.566,1.884,0.488
			c1.006-0.082,5.223-16.426,4.92-18.033C185.927,143.805,184.733,143.375,183.886,143.568z M174.125,160.949
			c0.293-0.486-1.114-10.834-1.892-10.936c-0.777-0.1-1.359-0.297-1.654,0.188c-0.294,0.486,1.602,10.542,1.794,10.934
			C172.565,161.525,173.83,161.434,174.125,160.949z M186.491,162.623c0.2,0.491,0.394,1.28,0.855,1.25
			c0.866-0.059,6.062-7.477,5.819-8.172c-0.165-0.473-0.55-0.221-1.042-0.467C191.785,155.062,186.193,161.891,186.491,162.623z
			 M43.57,111.457c9.75,0,46.743-103.334,45.204-105.759c-1.853-2.915-13.295-8.886-16.84-3.554
			C68.388,7.476,47.115,74.13,43.57,68.798C40.025,63.466,22.297,3.922,16.979,3.922c-5.318,0-13.368-0.472-16.84,5.331
			C-2.521,13.698,33.82,111.457,43.57,111.457z M165.709,164.201c0,0,1.105,0.26,1.688-1.234c0.211-0.543-7.5-14.752-8.007-14.609
			c-0.836,0.229-2.016,0.486-2.063,1.4C157.248,151.238,164.126,163.438,165.709,164.201z M227.046,106.125
			c1.772-1.777,4.432-17.774,0-17.774c-4.433,0-30.137,0-31.909-2.667c-1.772-2.666,0-80.874-1.772-81.762
			c-1.773-0.891-20.387-2.667-20.387,1.776c0,4.443-3.545,93.317-1.772,98.649S225.272,107.903,227.046,106.125z M319.226,112.446
			c32.796,0.889,40.773-35.55,40.773-55.99c0-8.931-2.66-51.546-39-51.546c-23.062,0-37.228,35.549-38.112,53.324
			C281.999,76.007,286.432,111.558,319.226,112.446z M308.59,59.122c0.887-13.331,4.432-22.218,15.068-23.106
			c5.373-0.45,11.354,11.43,10.636,22.218c-0.886,13.331-5.317,26.662-13.295,26.662S307.703,72.453,308.59,59.122z M266.045,23.474
			c0.887-2.667,4.433-17.775,1.773-19.551c-2.659-1.778-19.5-3.554-20.388,0c-0.885,3.554-2.658,15.995-1.771,17.773
			C246.546,23.474,265.159,26.139,266.045,23.474z M263.386,108.793c2.659-1.777,4.433-71.989,2.659-73.767
			c-1.773-1.778-21.272-3.554-21.272,0.89s-3.546,69.321-2.659,71.1C243,108.793,260.727,110.569,263.386,108.793z M44.255,136.012
			c-17.129-0.376-21.518,12.516-21.518,25.461s6.688,21.521,17.447,21.521c15.256,0,16.079-9.234,16.389-15.416
			c0.072-1.439-7.108-1.664-7.912-0.59c-0.803,1.072-1.251,7.591-7.419,7c-6.675-0.643-7.616-8.086-7.852-13.539
			c-0.26-5.982,1.807-14.541,9.574-14.941c6.201-0.326,6.678,6.848,6.405,8.197c-0.38,1.893,3.833,0.954,7.366,1.297
			C58.359,155.158,58.933,136.335,44.255,136.012z M177.996,165.281c-15.558-0.709-16.494,10.568-15.912,11.346
			c1.569,2.099,27.818,1.284,28.288,0.71C191.228,176.288,190.006,165.828,177.996,165.281z M155.328,161.537
			c-0.708-0.354-2.043,0.354-2.043,1.417s6.709,6.899,7.426,6.736c0.487-0.11,1.089-1.032,1.291-1.692
			C162.113,167.635,156.035,161.894,155.328,161.537z M200.495,161.559c-1.192-0.321-9.753,5.482-9.786,6.339
			c-0.021,0.581,0.829,1.537,1.509,1.964c0.373,0.234,8.64-4.885,9.25-5.573C202.079,163.598,201.687,161.879,200.495,161.559z
			 M272.905,137.691c-13.653,1.052-20.479,6.318-19.43,23.696c0.826,13.674,5.169,20.009,17.855,20.009
			c15.763,0,20.48-11.586,21.006-21.062C292.862,150.854,288.624,136.478,272.905,137.691z M273.778,171.187
			c-5.696,0.878-9.642-3.957-9.203-10.546c0.439-6.594-0.438-10.987,7.451-10.987c7.889,0,9.203,5.272,9.203,10.546
			S279.477,170.307,273.778,171.187z M231.417,172.865c-3.508,0,5.299-6.424,11.858-12.654c8.326-7.91,3.067-21.973-6.573-23.29
			c-9.643-1.318-19.874,4.822-20.654,5.525c-0.779,0.705-0.568,8.241,0.602,8.79c0.761,0.356,12.343-7.109,17.193-4.902
			c2.7,1.227,2.457,3.594,1.982,6.406c-0.778,4.605-17.192,17.434-19.272,19.738c-1.488,1.648-1.267,6.912-0.624,8.813
			c0.899,2.665,29.872,0,31.625-0.438c1.753-0.439,1.315-7.031,0.438-8.789S234.922,172.865,231.417,172.865z M126.001,2.144
			c-7.091,0.888-56.995,104.949-55.84,108.425c0.886,2.667,19.5,0.888,23.045,0.888c3.545,0,12.409-28.438,15.068-29.328
			c2.66-0.887,12.409,0,16.841,0.89c4.432,0.888,6.205,21.329,8.863,25.774c2.66,4.443,20.583,3.11,22.237,2.018
			C159.766,108.461,133.091,1.255,126.001,2.144z M125.115,62.578c-3.545,0.889-6.205,0-10.636,0s7.091-18.663,8.863-20.44
			C125.115,40.359,128.66,61.689,125.115,62.578z M305.334,134.712c-1.163,0.233-8.407,3.317-11.162,5.493
			c-1.092,0.861,0.025,4.357,0.644,4.614c0.617,0.259,5.26-1.758,6.136,0.44c0.877,2.197,0,32.518,0,34.274
			c0,1.758,7.45,2.637,9.641,1.319c2.191-1.319,0.878-45.264-0.437-46.142C308.84,133.834,307.525,134.271,305.334,134.712z
			 M82.548,139.689c-10.122,0-17.943,5.996-18.863,19.375s9.201,22.605,17.944,22.605c8.741,0,17.943-10.15,17.943-19.378
			C99.571,153.068,92.67,139.689,82.548,139.689z M81.799,171.956c-3.726,0.189-8.977-4.501-8.528-11.251
			c0.449-6.751,2.906-11.97,7.742-11.927c6.383,0.06,9.201,6.751,9.088,12.826C90.025,165.73,88.418,171.618,81.799,171.956z
			 M130.63,138.377c-1.721,0.352-1.153,21.611-2.993,21.611s-15.183-22.605-18.864-20.762c-3.68,1.846-3.276,37.5-2.898,39.82
			c0.111,0.682,7.959,0.871,9.339,0.871c1.38,0-0.481-20.202,1.359-17.896c1.84,2.309,14.655,19.041,18.336,18.579
			c3.681-0.462,4.679-39.405,3.367-41.3C137.033,137.508,132.389,138.02,130.63,138.377z M345.338,161.605
			c0-11.648,0.07-25.195-0.986-25.459c0,0-4.988-1.254-7.575,0.557c-2.587,1.81-17.834,17.215-18.855,19.271
			c0,0-2.258,4.497,0,10.319c0.908,2.345,18.116,3.335,18.116,3.335s-0.785,12.378,0.186,12.654c1.321,0.376,7.621,1.391,8.129,0
			c0.227-0.622,0.548-5.405,0.78-12.786c0,0,4.999-0.309,5.225-0.973c0.225-0.664,1.385-5.279,0.276-7.148
			C350.356,160.743,345.338,162.002,345.338,161.605z M336.36,161.814c-0.873,0.682-9.829,0.321-9.954-0.501
			c-0.125-0.821-0.748-2.742,0.5-3.952c3.385-3.279,7.469-8.16,9.655-9.219C336.562,148.143,337.235,161.133,336.36,161.814z"/>
	</g>
</g>
</svg>
