<svg width="146" height="49" viewBox="0 0 146 49" fill="none" xmlns="http://www.w3.org/2000/svg">
<path d="M68.517 5.39169H73.4841V0.650391H68.517V5.39169ZM63.4316 45.9614H66.8613C71.0952 45.9614 73.4841 43.6257 73.4841 39.5151V9.52573H68.517V37.5298C68.517 40.1223 67.3344 41.3368 64.7326 41.3368H63.4316V45.9614ZM98.007 13.6364C96.4222 10.3198 92.8743 8.82505 88.3093 8.82505C82.3961 8.82505 78.8481 11.5811 77.6182 15.902L82.2305 17.3033C83.1057 14.5006 85.5656 13.3328 88.262 13.3328C92.2593 13.3328 93.8677 14.9677 94.0333 18.4478C89.894 19.0083 85.6838 19.5455 82.7272 20.4097C78.7772 21.6476 76.6957 24.0766 76.6957 27.8837C76.6957 31.9944 79.676 35.4511 85.329 35.4511C89.4683 35.4511 92.4249 34.0497 94.53 31.0835V34.7504H98.9058V19.2185C98.9058 17.1165 98.8111 15.2947 98.007 13.6364ZM86.2042 31.4572C83.0347 31.4572 81.5919 29.7989 81.5919 27.837C81.5919 25.8517 83.082 24.7773 85.1161 24.1C87.2686 23.4694 90.1306 23.0723 93.986 22.5118C93.9623 23.6796 93.8677 25.2911 93.4656 26.459C92.8979 28.9113 90.4144 31.4572 86.2042 31.4572ZM100.554 34.7504H122.196V30.3828H108.43L122.906 10.3198V9.52573H101.878V13.8933H115.053L100.554 33.9796V34.7504ZM123.602 34.7504H145.245V30.3828H131.479L145.954 10.3198V9.52573H124.927V13.8933H138.102L123.602 33.9796V34.7504Z" fill="black"/>
<path fill-rule="evenodd" clip-rule="evenodd" d="M51.079 10.0473V0C43.2314 3.13597 34.6537 4.86284 25.6675 4.86284C20.5313 4.86284 15.5286 4.29872 10.7195 3.22982V12.8415V25.4721C10.2741 25.1697 9.78444 24.918 9.26136 24.725C8.07128 24.2862 6.76169 24.1713 5.49828 24.3951C4.23488 24.6188 3.07438 25.1711 2.16349 25.9821C1.25264 26.793 0.632333 27.8263 0.381011 28.9512C0.129689 30.076 0.258704 31.2419 0.75163 32.3015C1.2446 33.3611 2.07941 34.2669 3.15046 34.9039C4.22155 35.5413 5.48078 35.881 6.76891 35.881C6.967 35.881 7.06638 35.881 7.1502 35.8797C11.6773 35.7906 15.3257 32.188 15.4158 27.7176C15.4167 27.6718 15.4171 27.6213 15.4173 27.552L15.4174 27.4103V27.3412V25.8651V13.6023C18.771 14.041 22.1925 14.2675 25.6675 14.2675C25.9169 14.2675 26.166 14.2663 26.4149 14.264V38.0187C25.9695 37.716 25.4798 37.4646 24.9567 37.2713C23.7667 36.8327 22.4571 36.7176 21.1937 36.9414C19.9303 37.1652 18.7698 37.7177 17.8589 38.5283C16.948 39.3394 16.3277 40.3726 16.0764 41.4975C15.8251 42.6224 15.9541 43.7886 16.4471 44.8481C16.94 45.9076 17.7748 46.813 18.8458 47.4504C19.9169 48.0874 21.1762 48.4275 22.4643 48.4275C22.6626 48.4275 22.7617 48.4275 22.8456 48.4258C27.3727 48.3371 31.0211 44.7343 31.1111 40.2639C31.1128 40.1811 31.1128 40.0834 31.1128 39.8877V38.4115V14.081C36.3639 13.7202 41.4707 12.8414 46.3811 11.4962V25.3664C45.9355 25.0639 45.4461 24.8121 44.9228 24.6193C43.7328 24.1804 42.4233 24.0655 41.1598 24.2893C39.8963 24.513 38.736 25.0653 37.8252 25.8763C36.9143 26.6873 36.2938 27.7205 36.0426 28.8453C35.7915 29.9702 35.9205 31.1361 36.4133 32.1957C36.9062 33.2553 37.7409 34.1611 38.8122 34.7981C39.883 35.4351 41.1422 35.7753 42.4306 35.7753C42.6289 35.7753 42.7278 35.7753 42.8116 35.7736C47.3388 35.6848 50.9874 32.0822 51.0772 27.6119C51.079 27.5291 51.079 27.4312 51.079 27.2354V25.7593V10.0473Z" fill="#146AFF"/>
</svg>
