<svg width="127" height="44" viewBox="0 0 127 44" fill="none" xmlns="http://www.w3.org/2000/svg">
<path d="M25.2464 30.8072C25.2464 39.3374 19.2597 42.8139 12.651 42.8139C5.86455 42.8139 0 38.8043 0 30.685H6.7309C6.7309 34.5058 9.58542 36.4829 12.651 36.4829C15.7165 36.4829 18.4489 34.6835 18.4489 30.2185V0.917969H25.2353V30.7961L25.2464 30.8072Z" fill="#7A40ED"/>
<path d="M34.5445 9.45896C32.2232 9.45896 30.2461 7.53744 30.2461 5.16052C30.2461 2.83914 32.2232 0.928711 34.5445 0.928711C36.9215 0.928711 38.7763 2.83914 38.7763 5.16052C38.7763 7.4819 36.9215 9.45896 34.5445 9.45896ZM31.3457 13.3798H37.7323V42.6136H31.3457V13.3798Z" fill="#7A40ED"/>
<path d="M58.6139 42.0804C57.3366 42.4914 55.8371 42.7246 53.86 42.7246C48.2954 42.7246 43.9414 39.648 43.9414 33.0948V19.1109V13.4241V5.36035H50.328V13.4241H57.3477V19.1109H50.328V32.0507C50.328 35.6494 51.8941 36.9267 55.204 36.9267C56.4147 36.9267 57.692 36.749 58.625 36.4047V42.0915V42.0804H58.6139ZM75.7966 42.0804C74.5192 42.4914 73.0198 42.7246 71.0427 42.7246C65.4781 42.7246 61.1241 39.648 61.1241 33.0948V19.1109V13.4241V5.36035H67.5107V13.4241H75.7521V19.1109H67.5107V32.0507C67.5107 35.6494 69.0768 36.9267 72.3867 36.9267C73.6085 36.9267 74.8747 36.749 75.8077 36.4047V42.0915L75.7966 42.0804Z" fill="#7A40ED"/>
<path d="M76.75 28.0092C76.75 19.479 83.0699 12.9258 91.889 12.9258C99.4862 12.9258 105.873 17.9684 105.873 27.3095C105.873 27.9426 105.873 28.4646 105.817 29.3976H83.0144C83.3032 34.1514 87.124 37.2836 91.9445 37.2836C96.0097 37.2836 98.7309 35.4288 100.242 32.8741L105.118 36.3506C102.507 40.4714 100.708 43.0816 91.889 43.0816C83.0699 43.0816 76.75 36.8171 76.75 27.9981V28.0092ZM91.6557 18.3127C87.946 18.3127 84.1695 20.4564 83.3032 24.7548H99.4307C98.731 20.5786 95.3655 18.3127 91.6557 18.3127Z" fill="#7A40ED"/>
<path d="M109.717 13.5476H116.103V18.7124C117.203 15.4025 120.446 13.2588 123.756 13.2588C124.578 13.2588 125.389 13.3143 126.255 13.492V20.0452C125.156 19.7009 124.223 19.5232 123.068 19.5232C119.413 19.5232 116.103 22.5999 116.103 28.3978V42.5482H109.717V13.5365V13.5476Z" fill="#7A40ED"/>
</svg>
