<svg width="164" height="40" viewBox="0 0 164 40" fill="none" xmlns="http://www.w3.org/2000/svg">
<g clip-path="url(#clip0_506_1052)">
<path d="M24.1085 7.26014C22.7246 5.99964 19.595 4.81885 16.7551 7.15719C24.5398 -0.819841 32.9327 3.24541 35.8615 6.28861C38.7902 9.3318 40.2561 13.5226 40.2561 17.8157C40.2561 29.571 31.4895 35.9995 20.2916 35.9995C10.2697 35.9995 5.8696 30.9607 4.54883 29.6023C7.90433 33.0534 13.4484 34.0024 16.8823 32.9815C20.678 31.8531 22.8968 29.6449 23.875 28.726C25.769 26.9467 27.7914 24.0974 27.7914 17.8157C27.7914 11.534 25.4924 8.52065 24.1085 7.26014Z" fill="black"/>
<path d="M20.2207 1C22.4039 1.00003 24.3016 1.24912 25.9453 1.64453C25.018 1.68597 24.1378 1.82381 23.3447 2.05957C19.3038 3.26091 16.9366 5.62012 15.9521 6.54492C14.9324 7.50291 13.8602 8.7684 13.0508 10.6436C12.2443 12.5122 11.7207 14.9348 11.7207 18.1836C11.7207 24.7455 14.1377 28.0277 15.7305 29.4785C16.501 30.1803 17.7426 30.8687 19.1934 31.1006C16.8245 32.3674 14.5311 32.6524 12.498 32.416C9.31593 32.0461 6.6929 30.391 5.37109 29.0176C2.64692 26.187 1.25586 22.2571 1.25586 18.1836L1.26172 17.6621C1.38689 12.3109 3.44125 8.22598 6.68945 5.44336C10.0616 2.55465 14.805 1 20.2207 1Z" stroke="black" stroke-width="2"/>
</g>
<path d="M146.016 8.80092L151.948 23.3336L157.441 8.80092H163.191L153.279 33.6948L153.278 33.6976C152.422 35.766 151.313 37.3243 149.94 38.3512L149.941 38.3514C148.562 39.4114 146.89 39.9368 144.939 39.9368H142.019L141.968 35.2032H144.441C145.324 35.2032 146.066 34.9564 146.681 34.4699L146.687 34.4656C147.303 34.0052 147.808 33.29 148.19 32.2968L149.197 29.5854L140.26 8.80092H146.016ZM82.9919 15.3929C82.9919 14.7522 82.6931 14.2074 82.0525 13.7495L82.0476 13.746L82.0429 13.7422C81.4358 13.2618 80.6071 13.0091 79.5306 13.0091C78.1252 13.0091 77.0614 13.3622 76.3056 14.0389L76.3054 14.0391C75.5596 14.7048 75.1386 15.4712 75.026 16.3426L74.9987 16.5538L69.4268 16.6018L69.4548 16.3319C69.6097 14.8343 70.106 13.4684 70.9439 12.238C71.7846 11.0035 72.9356 10.0418 74.3902 9.35274L74.5276 9.28646C75.9511 8.6109 77.5451 8.27546 79.3043 8.27546C82.1536 8.27548 84.4097 9.00155 86.0385 10.4837L86.1915 10.6212C87.7462 12.0536 88.521 13.899 88.5211 16.1371V31.1798H82.9919V29.0082C82.316 29.7051 81.5146 30.2707 80.5889 30.704L80.3584 30.8081C79.12 31.347 77.8472 31.6176 76.5422 31.6176C75.2362 31.6176 74.0085 31.3806 72.8615 30.9052L72.6333 30.8071C71.4164 30.264 70.4442 29.4766 69.723 28.4457L69.7213 28.4431C68.9974 27.3779 68.6385 26.1481 68.6385 24.7627C68.6385 23.7451 68.8084 22.8239 69.1538 22.0029L69.2212 21.8447C69.5669 21.0616 70.0674 20.4084 70.7231 19.8897L70.7248 19.8882L70.7268 19.8868C72.1992 18.7659 74.3371 18.1009 77.1089 17.8653L77.1094 17.865L77.625 17.8213C78.7879 17.7197 79.694 17.6184 80.3459 17.5177C81.0705 17.3772 81.702 17.1403 82.2441 16.8101C82.7437 16.4783 82.9918 16.016 82.9919 15.3929ZM121.448 8.80092V31.1798H115.874V8.80092H121.448ZM121.584 0.0439453V5.89167H115.692V0.0439453H121.584ZM74.3487 24.4563C74.3487 25.1794 74.6085 25.7882 75.1333 26.2966C75.6197 26.7407 76.2972 27.0119 77.1902 27.0902L77.372 27.1033L77.3745 27.1035L77.5317 27.1118C78.3174 27.1429 79.1193 27.0148 79.9393 26.7244C80.8021 26.3899 81.519 25.8767 82.094 25.1825C82.6606 24.4696 82.9632 23.602 82.9921 22.5671L83.0285 20.9802C82.6345 21.1309 82.1536 21.2662 81.5889 21.3869L81.2553 21.4549C80.3371 21.6324 79.2699 21.7649 78.0552 21.853L78.0549 21.8528C76.765 21.9679 75.8351 22.2565 75.2326 22.6918C74.6432 23.1176 74.3487 23.6967 74.3487 24.4563ZM133.257 23.9308C133.257 25.0291 133.44 25.7069 133.737 26.0452C134.055 26.3734 134.699 26.5773 135.768 26.5773H139.101L139.05 31.1798H134.5C132.633 31.1798 131.074 30.621 129.844 29.493L129.84 29.4885C128.641 28.3298 128.045 26.865 128.045 25.1131V13.2279H124.513V8.80092H128.045V1.79515H133.257V8.80092H139.053V13.2279H133.257V23.9308ZM66.174 19.859C66.174 22.2561 65.6687 24.3413 64.6483 26.1061L64.6485 26.1063C63.6628 27.834 62.3639 29.1526 60.7505 30.0527L60.7502 30.0524C59.1734 30.9489 57.4851 31.3986 55.6892 31.3986C53.963 31.3986 52.4795 31.0919 51.249 30.4667L51.1309 30.4052C50.1307 29.8733 49.2879 29.2407 48.6058 28.5062V39.9368H43.5293V8.80092H48.6058V11.2721C48.8583 10.9815 49.1756 10.687 49.5533 10.3882C50.242 9.81417 51.0962 9.33555 52.1105 8.94915C53.1404 8.52767 54.2893 8.31918 55.5534 8.31917C57.2604 8.31917 58.9318 8.76958 60.5643 9.6625C62.2091 10.5328 63.5537 11.851 64.5999 13.606L64.6972 13.7699C65.6854 15.4746 66.174 17.5075 66.174 19.859ZM48.651 19.7277C48.651 21.0682 48.9012 22.273 49.397 23.3462C49.9223 24.3889 50.6323 25.1994 51.5256 25.7854C52.4487 26.3711 53.4872 26.665 54.6479 26.665C56.3907 26.665 57.7998 26.0647 58.8968 24.8644L58.9982 24.7506C60.0302 23.5639 60.5544 22.042 60.5544 20.1655C60.5544 18.0781 59.9934 16.4 58.8913 15.11L58.8896 15.1081C57.7899 13.7928 56.3825 13.1404 54.6479 13.1404C52.8766 13.1404 51.4376 13.7541 50.3104 14.9826L50.2087 15.0993C49.1749 16.3143 48.651 17.8512 48.651 19.7277ZM96.8186 19.6837C96.8186 21.1744 97.0704 22.4675 97.5663 23.5688L97.6616 23.7679C98.1477 24.746 98.7829 25.504 99.563 26.0514C100.426 26.607 101.373 26.884 102.408 26.884C103.716 26.884 104.77 26.5341 105.592 25.8502C106.427 25.1258 106.941 24.254 107.141 23.2289L107.18 23.031H112.747L112.709 23.3061C112.493 24.8928 111.903 26.3183 110.942 27.5781L110.94 27.5805C109.979 28.81 108.739 29.7679 107.225 30.4551L107.226 30.4553C105.74 31.1438 104.102 31.4863 102.317 31.4863C100.164 31.4863 98.2333 31.01 96.5309 30.0522L96.5287 30.0508L96.5262 30.0494C94.8564 29.0626 93.5429 27.7017 92.5869 25.9721L92.5844 25.9678C91.6586 24.2072 91.199 22.2128 91.1989 19.9904C91.1989 17.8362 91.6452 15.8961 92.5432 14.1757L92.6314 14.0099C93.5873 12.2213 94.9167 10.83 96.6186 9.84256L96.6203 9.84161L96.7834 9.7504C98.4758 8.82395 100.383 8.36288 102.499 8.36288C104.254 8.36289 105.876 8.70566 107.362 9.39384L107.5 9.45916C108.919 10.1409 110.082 11.0768 110.984 12.2665L111.073 12.3798C111.984 13.5571 112.529 14.9041 112.71 16.4158L112.742 16.687H107.191L107.144 16.5013C106.886 15.4733 106.327 14.6131 105.462 13.9158L105.458 13.9132L105.455 13.9101C104.632 13.1964 103.592 12.8338 102.317 12.8338C101.312 12.8338 100.396 13.1106 99.5623 13.6666L99.5598 13.6683L99.5574 13.6697C98.728 14.1951 98.0623 14.974 97.5653 16.0198L97.5641 16.0221C97.0704 17.0333 96.8186 18.2512 96.8186 19.6837Z" fill="black"/>
<defs>
<clipPath id="clip0_506_1052">
<rect width="40" height="36" fill="white" transform="translate(0.255859)"/>
</clipPath>
</defs>
</svg>
