<svg width="164" height="41" viewBox="0 0 164 41" fill="none" xmlns="http://www.w3.org/2000/svg">
<g clip-path="url(#clip0_517_1012)">
<path d="M24.1085 7.47401C22.7246 6.2135 19.595 5.03271 16.7551 7.37105C24.5398 -0.605976 32.9327 3.45928 35.8615 6.50247C38.7903 9.54567 40.2561 13.7365 40.2561 18.0296C40.2561 29.7848 31.4895 36.2134 20.2916 36.2134C10.2697 36.2134 5.8696 31.1745 4.54883 29.8161C7.90433 33.2673 13.4484 34.2163 16.8823 33.1954C20.6781 32.0669 22.8968 29.8588 23.875 28.9399C25.769 27.1605 27.7914 24.3113 27.7914 18.0296C27.7914 11.7479 25.4924 8.73451 24.1085 7.47401Z" fill="black"/>
<path d="M10.7207 18.3975C10.7207 15.0409 11.2613 12.4792 12.1318 10.4619C13.0085 8.43071 14.1748 7.05583 15.2676 6.0293C16.0572 5.28746 17.8155 3.54354 20.666 2.2207C20.519 2.21832 20.3706 2.21387 20.2207 2.21387C14.9882 2.21387 10.4927 3.71518 7.33984 6.41602C4.2252 9.08416 2.25591 13.0589 2.25586 18.3975C2.25586 22.2513 3.57223 25.9201 6.0918 28.5381C7.27104 29.7633 9.68655 31.2964 12.6133 31.6367C13.774 31.7717 15.0416 31.7216 16.374 31.3672C15.8593 31.0791 15.413 30.7563 15.0566 30.4316C13.255 28.7905 10.7207 25.2394 10.7207 18.3975ZM12.7275 18.9775C12.8638 24.8659 15.0627 27.732 16.4033 28.9531C17.7872 30.2136 20.9171 31.3947 23.7568 29.0566C16.2154 36.7842 8.10264 33.2105 4.94043 30.2129L4.65039 29.9248C1.72165 26.8816 0.255859 22.6906 0.255859 18.3975C0.255957 6.64237 9.0229 0.213866 20.2207 0.213867L21.1436 0.228516C30.5142 0.525359 34.6833 5.2953 35.9629 6.61133C32.6075 3.1603 27.0638 2.21073 23.6299 3.23145L23.2783 3.34082C19.6964 4.49715 17.5843 6.59715 16.6367 7.4873C14.7427 9.26662 12.7208 12.1161 12.7207 18.3975L12.7275 18.9775Z" fill="black"/>
</g>
<path d="M146.016 9.01478L151.948 23.5475L157.441 9.01478H163.191L153.279 33.9086L153.278 33.9115C152.422 35.9799 151.313 37.5382 149.94 38.565L149.941 38.5653C148.562 39.6253 146.89 40.1507 144.939 40.1507H142.019L141.968 35.4171H144.441C145.324 35.4171 146.066 35.1703 146.681 34.6837L146.687 34.6795C147.303 34.2191 147.808 33.5038 148.19 32.5107L149.197 29.7993L140.26 9.01478H146.016ZM82.9919 15.6067C82.9919 14.966 82.6931 14.4213 82.0525 13.9634L82.0476 13.9598L82.0429 13.956C81.4358 13.4757 80.6071 13.2229 79.5306 13.2229C78.1252 13.223 77.0614 13.5761 76.3056 14.2527L76.3054 14.253C75.5596 14.9186 75.1386 15.685 75.026 16.5565L74.9987 16.7676L69.4268 16.8156L69.4548 16.5458C69.6097 15.0481 70.106 13.6823 70.9439 12.4519C71.7846 11.2174 72.9356 10.2557 74.3902 9.56661L74.5276 9.50033C75.9511 8.82477 77.5451 8.48933 79.3043 8.48933C82.1536 8.48934 84.4097 9.21542 86.0385 10.6976L86.1915 10.8351C87.7462 12.2675 88.521 14.1129 88.5211 16.351V31.3937H82.9919V29.222C82.316 29.9189 81.5146 30.4845 80.5889 30.9179L80.3584 31.0219C79.12 31.5608 77.8472 31.8315 76.5422 31.8315C75.2362 31.8315 74.0085 31.5944 72.8615 31.1191L72.6333 31.021C71.4164 30.4779 70.4442 29.6905 69.723 28.6595L69.7213 28.6569C68.9974 27.5917 68.6385 26.3619 68.6385 24.9766C68.6385 23.959 68.8084 23.0377 69.1538 22.2168L69.2212 22.0585C69.5669 21.2755 70.0674 20.6223 70.7231 20.1035L70.7248 20.1021L70.7268 20.1007C72.1992 18.9798 74.3371 18.3148 77.1089 18.0791L77.1094 18.0789L77.625 18.0352C78.7879 17.9335 79.694 17.8323 80.3459 17.7316C81.0705 17.591 81.702 17.3542 82.2441 17.024C82.7437 16.6922 82.9918 16.2298 82.9919 15.6067ZM121.448 9.01478V31.3937H115.874V9.01478H121.448ZM121.584 0.257812V6.10553H115.692V0.257812H121.584ZM74.3487 24.6701C74.3487 25.3932 74.6085 26.0021 75.1333 26.5104C75.6197 26.9546 76.2972 27.2258 77.1902 27.3041L77.372 27.3171L77.3745 27.3174L77.5317 27.3257C78.3174 27.3568 79.1193 27.2287 79.9393 26.9383C80.8021 26.6038 81.519 26.0905 82.094 25.3963C82.6606 24.6835 82.9632 23.8159 82.9921 22.7809L83.0285 21.1941C82.6345 21.3448 82.1536 21.48 81.5889 21.6008L81.2553 21.6687C80.3371 21.8463 79.2699 21.9788 78.0552 22.0669L78.0549 22.0666C76.765 22.1818 75.8351 22.4704 75.2326 22.9056C74.6432 23.3314 74.3487 23.9105 74.3487 24.6701ZM133.257 24.1447C133.257 25.2429 133.44 25.9208 133.737 26.2591C134.055 26.5873 134.699 26.7912 135.768 26.7912H139.101L139.05 31.3937H134.5C132.633 31.3937 131.074 30.8349 129.844 29.7069L129.84 29.7024C128.641 28.5437 128.045 27.0788 128.045 25.327V13.4417H124.513V9.01478H128.045V2.00902H133.257V9.01478H139.053V13.4417H133.257V24.1447ZM66.174 20.0729C66.174 22.47 65.6687 24.5552 64.6483 26.3199L64.6485 26.3202C63.6628 28.0479 62.3639 29.3664 60.7505 30.2665L60.7502 30.2663C59.1734 31.1628 57.4851 31.6125 55.6892 31.6125C53.963 31.6125 52.4795 31.3058 51.249 30.6806L51.1309 30.6191C50.1307 30.0871 49.2879 29.4545 48.6058 28.7201V40.1507H43.5293V9.01478H48.6058V11.486C48.8583 11.1954 49.1756 10.9009 49.5533 10.6021C50.242 10.028 51.0962 9.54942 52.1105 9.16301C53.1404 8.74154 54.2893 8.53305 55.5534 8.53304C57.2604 8.53304 58.9318 8.98345 60.5643 9.87637C62.2091 10.7467 63.5537 12.0649 64.5999 13.8199L64.6972 13.9838C65.6854 15.6884 66.174 17.7214 66.174 20.0729ZM48.651 19.9415C48.651 21.282 48.9012 22.4869 49.397 23.5601C49.9223 24.6028 50.6323 25.4133 51.5256 25.9992C52.4487 26.585 53.4872 26.8789 54.6479 26.8789C56.3907 26.8789 57.7998 26.2785 58.8968 25.0783L58.9982 24.9645C60.0302 23.7777 60.5544 22.2559 60.5544 20.3793C60.5544 18.2919 59.9934 16.6138 58.8913 15.3238L58.8896 15.3219C57.7899 14.0066 56.3825 13.3543 54.6479 13.3543C52.8766 13.3543 51.4376 13.968 50.3104 15.1965L50.2087 15.3131C49.1749 16.5282 48.651 18.0651 48.651 19.9415ZM96.8186 19.8976C96.8186 21.3883 97.0704 22.6814 97.5663 23.7827L97.6616 23.9817C98.1477 24.9599 98.7829 25.7179 99.563 26.2653C100.426 26.8208 101.373 27.0979 102.408 27.0979C103.716 27.0979 104.77 26.748 105.592 26.0641C106.427 25.3397 106.941 24.4678 107.141 23.4427L107.18 23.2449H112.747L112.709 23.5199C112.493 25.1067 111.903 26.5321 110.942 27.792L110.94 27.7944C109.979 29.0239 108.739 29.9818 107.225 30.669L107.226 30.6692C105.74 31.3576 104.102 31.7001 102.317 31.7001C100.164 31.7001 98.2333 31.2239 96.5309 30.2661L96.5287 30.2646L96.5262 30.2632C94.8565 29.2764 93.5429 27.9156 92.5869 26.1859L92.5844 26.1817C91.6587 24.421 91.199 22.4266 91.1989 20.2042C91.1989 18.05 91.6452 16.11 92.5432 14.3895L92.6314 14.2237C93.5873 12.4352 94.9167 11.0439 96.6186 10.0564L96.6203 10.0555L96.7834 9.96426C98.4758 9.03782 100.383 8.57674 102.499 8.57674C104.254 8.57675 105.876 8.91952 107.362 9.6077L107.5 9.67303C108.919 10.3548 110.082 11.2907 110.984 12.4804L111.073 12.5937C111.984 13.771 112.529 15.118 112.71 16.6296L112.742 16.9009H107.191L107.144 16.7151C106.886 15.6871 106.327 14.827 105.462 14.1297L105.458 14.1271L105.455 14.124C104.632 13.4103 103.592 13.0476 102.317 13.0476C101.312 13.0477 100.396 13.3245 99.5623 13.8805L99.5598 13.8821L99.5574 13.8836C98.728 14.409 98.0623 15.1878 97.5654 16.2336L97.5641 16.236C97.0704 17.2471 96.8186 18.4651 96.8186 19.8976Z" fill="black"/>
<defs>
<clipPath id="clip0_517_1012">
<rect width="40" height="36" fill="white" transform="translate(0.255859 0.213867)"/>
</clipPath>
</defs>
</svg>
