<svg width="230" height="40" viewBox="0 0 230 40" fill="none" xmlns="http://www.w3.org/2000/svg">
<g clip-path="url(#clip0_506_968)">
<path d="M16.1087 21.4931C15.5723 22.564 14.0414 22.564 13.505 21.4931L12.222 18.9323C12.121 18.7305 12.0684 18.5081 12.0684 18.2826C12.0684 18.057 12.121 17.8346 12.222 17.6328L13.505 15.0717C14.0414 14.0008 15.5723 14.0008 16.1087 15.0717L17.3917 17.6328C17.4928 17.8346 17.5454 18.057 17.5454 18.2826C17.5454 18.5081 17.4928 18.7305 17.3917 18.9323L16.1087 21.4931ZM16.1087 36.0177C15.5723 37.0883 14.0414 37.0883 13.505 36.0177L12.222 33.4566C12.121 33.2548 12.0684 33.0324 12.0684 32.8068C12.0684 32.5813 12.121 32.3589 12.222 32.1571L13.505 29.596C14.0414 28.5251 15.5723 28.5251 16.1087 29.596L17.3917 32.1571C17.4928 32.3589 17.5454 32.5813 17.5454 32.8068C17.5454 33.0324 17.4928 33.2548 17.3917 33.4566L16.1087 36.0177Z" fill="#1D4AFF"/>
<path d="M0.255859 30.5044C0.255859 29.2101 1.82365 28.5615 2.74051 29.4769L9.41214 36.1361C10.3293 37.0515 9.67978 38.6161 8.38307 38.6161H1.71144C1.3255 38.6161 0.95535 38.4631 0.682392 38.1907C0.409434 37.9184 0.256011 37.549 0.255859 37.1638L0.255859 30.5044ZM0.255859 23.4901C0.255859 23.8758 0.409289 24.2452 0.682372 24.5175L14.3812 38.1906C14.6541 38.4631 15.0242 38.6162 15.4102 38.6164H22.9346C24.2313 38.6164 24.8808 37.0515 23.9637 36.1361L2.7408 14.9526C1.82365 14.0375 0.255859 14.6858 0.255859 15.9801V23.4904V23.4901ZM0.255859 8.96607C0.255859 9.35121 0.409289 9.72093 0.682372 9.99321L28.9324 38.1906C29.2054 38.4632 29.5756 38.6163 29.9617 38.6164H37.4858C38.7825 38.6164 39.4323 37.0515 38.5152 36.1361L2.7408 0.428643C1.82365 -0.486786 0.255859 0.1615 0.255859 1.45579V8.96607ZM14.8074 8.96607C14.8074 9.35121 14.9608 9.72093 15.2339 9.99321L41.4258 36.1361C42.3426 37.0515 43.9104 36.4032 43.9104 35.1086V27.5986C43.9104 27.2133 43.7569 26.8437 43.4839 26.5712L17.292 0.428357C16.3752 -0.486786 14.8074 0.1615 14.8074 1.45579V8.96607ZM31.8435 0.428643C30.9267 -0.486786 29.3589 0.1615 29.3589 1.45579V8.96607C29.3589 9.35121 29.5123 9.72093 29.7854 9.99321L41.4255 21.6118C42.3426 22.5272 43.9101 21.8789 43.9101 20.5844V13.0744C43.9102 12.689 43.7568 12.3195 43.4839 12.0469L31.8435 0.428643Z" fill="#F9BD2B"/>
<path d="M62.1548 30.6828L48.4537 17.0077C47.5365 16.0922 45.9688 16.7405 45.9688 18.0348V37.1639C45.9688 37.5493 46.1221 37.9188 46.3951 38.1913C46.6681 38.4637 47.0383 38.6168 47.4243 38.6168H68.6475C69.0335 38.6168 69.4038 38.4637 69.6767 38.1913C69.9497 37.9188 70.1031 37.5493 70.1031 37.1639V35.4219C70.1031 34.6194 69.4487 33.9785 68.6518 33.8751C66.1925 33.5555 63.9081 32.4331 62.1545 30.6828H62.1548ZM52.9532 33.9691C52.3358 33.9688 51.7438 33.7238 51.3073 33.288C50.8707 32.8523 50.6254 32.2613 50.6252 31.6451C50.6254 31.0288 50.8707 30.4379 51.3073 30.0021C51.7438 29.5663 52.3358 29.3214 52.9532 29.3211C53.5707 29.3213 54.1628 29.5662 54.5994 30.002C55.036 30.4378 55.2814 31.0288 55.2816 31.6451C55.2814 32.2614 55.036 32.8524 54.5994 33.2882C54.1628 33.7239 53.5707 33.9689 52.9532 33.9691Z" fill="black"/>
<path d="M0.255859 37.1634C0.255859 37.5487 0.409215 37.9183 0.682189 38.1907C0.955164 38.4632 1.3254 38.6163 1.71144 38.6163H8.38307C9.67978 38.6163 10.3293 37.0514 9.41214 36.136L2.7408 29.4768C1.82365 28.5617 0.255859 29.21 0.255859 30.5043V37.1634ZM14.8074 12.4726L2.74051 0.428554C1.82365 -0.486875 0.255859 0.161411 0.255859 1.4557V8.96598C0.255859 9.35113 0.409289 9.72084 0.682372 9.99313L14.8074 24.092V12.4726ZM2.74051 14.9526C1.82365 14.0374 0.255859 14.6857 0.255859 15.98V23.4903C0.255859 23.8754 0.409289 24.2451 0.682372 24.5174L14.8074 38.6163V26.9968L2.74051 14.9526Z" fill="#1D4AFF"/>
<path d="M29.3582 13.0743C29.3582 12.8834 29.3205 12.6945 29.2473 12.5182C29.1742 12.3419 29.0669 12.1817 28.9316 12.0468L17.2916 0.428554C16.3744 -0.486875 14.8066 0.161411 14.8066 1.4557V8.96598C14.8066 9.35113 14.9601 9.72084 15.2332 9.99313L29.3582 24.092V13.0743ZM14.8066 38.6163H22.9339C24.2306 38.6163 24.8801 37.0514 23.9629 36.136L14.8066 26.9968V38.6163ZM14.8066 12.4726V23.4903C14.8066 23.8754 14.9601 24.2451 15.2332 24.5174L29.3582 38.6163V27.5986C29.3582 27.4077 29.3205 27.2188 29.2473 27.0425C29.1741 26.8662 29.0669 26.706 28.9316 26.5711L14.8066 12.4726Z" fill="#F54E00"/>
<path d="M87.082 32.8173H93.0612V22.9201H98.0569C103.544 22.9201 107.064 19.6716 107.064 14.6476C107.064 9.62357 103.545 6.375 98.0569 6.375H87.082V32.817V32.8173ZM93.0612 17.8207V11.4744H97.4514C99.722 11.4744 101.085 12.683 101.085 14.6473C101.085 16.6119 99.722 17.8204 97.4514 17.8204H93.0612V17.8207ZM117.882 33.1193C123.71 33.1193 127.949 28.9641 127.949 23.2979C127.949 17.6319 123.71 13.4767 117.882 13.4767C111.978 13.4767 107.815 17.6319 107.815 23.2979C107.815 28.9641 111.978 33.1193 117.882 33.1193ZM113.34 23.2979C113.34 20.2759 115.157 18.1984 117.882 18.1984C120.569 18.1984 122.386 20.2759 122.386 23.2979C122.386 26.3199 120.569 28.3976 117.882 28.3976C115.157 28.3976 113.34 26.3199 113.34 23.2979ZM137.518 33.1193C141.983 33.1193 145.011 30.3239 145.011 27.0376C145.011 19.3319 134.755 21.8247 134.755 18.8027C134.755 17.9719 135.625 17.443 136.874 17.443C138.161 17.443 139.713 18.2361 140.205 19.9739L144.67 18.1227C143.8 15.3656 140.583 13.4767 136.685 13.4767C132.484 13.4767 129.873 15.9696 129.873 18.9539C129.873 26.1687 139.978 24.1667 139.978 27.151C139.978 28.2087 138.994 28.9264 137.518 28.9264C135.398 28.9264 133.922 27.4533 133.468 25.6779L129.002 27.4153C129.987 30.2861 132.863 33.1193 137.518 33.1193ZM159.396 32.6284L159.018 27.831C158.374 28.171 157.541 28.2841 156.86 28.2841C155.498 28.2841 154.59 27.3021 154.59 25.6021V18.3873H159.207V13.7787H154.59V8.26386H149.026V13.7787H145.999V18.3873H149.026V26.3199C149.026 30.9284 152.168 33.1193 156.292 33.1193C157.428 33.1193 158.488 32.9307 159.396 32.6284H159.396ZM178.793 6.375V16.6496H168.272V6.37529H162.292V32.817H168.272V21.7493H178.793V32.817H184.81V6.375H178.793ZM198.082 33.1193C203.91 33.1193 208.149 28.9641 208.149 23.2979C208.149 17.6319 203.911 13.4767 198.082 13.4767C192.178 13.4767 188.016 17.6319 188.016 23.2979C188.016 28.9641 192.178 33.1193 198.082 33.1193ZM193.541 23.2979C193.541 20.2759 195.358 18.1984 198.083 18.1984C200.77 18.1984 202.586 20.2759 202.586 23.2979C202.586 26.3199 200.77 28.3976 198.083 28.3976C195.358 28.3976 193.541 26.3199 193.541 23.2979ZM218.887 32.2127C220.969 32.2127 222.823 31.495 223.807 30.2484V32.0616C223.807 34.177 222.104 35.6501 219.493 35.6501C217.638 35.6501 216.011 34.7436 215.746 33.1947L210.675 33.9881C211.356 37.5767 215.027 39.9944 219.493 39.9944C225.359 39.9944 229.257 36.5567 229.257 31.4573V13.7787H223.77V15.403C222.748 14.2321 221.007 13.4767 218.774 13.4767C213.475 13.4767 210.145 17.103 210.145 22.8447C210.145 28.5864 213.475 32.2127 218.887 32.2127ZM215.557 22.8447C215.557 20.0116 217.222 18.1984 219.795 18.1984C222.407 18.1984 224.072 20.0116 224.072 22.8447C224.072 25.6779 222.407 27.491 219.795 27.491C217.222 27.491 215.557 25.6779 215.557 22.8447Z" fill="black"/>
</g>
<defs>
<clipPath id="clip0_506_968">
<rect width="229" height="40" fill="white" transform="translate(0.255859)"/>
</clipPath>
</defs>
</svg>
