<svg width="350" height="436" viewBox="0 0 350 436" fill="none" xmlns="http://www.w3.org/2000/svg">
<path d="M188 2L189.539 0.0299391L186.051 3.56508L188 2ZM227 167L229.354 167.843L227 167ZM2 167L3.00759 164.712L0.800266 169.193L2 167ZM125.242 427.706L144.206 435.258L151.758 416.294L132.794 408.742L125.242 427.706ZM349.539 125.03L189.539 0.0299391L186.461 3.97006L346.461 128.97L349.539 125.03ZM186.051 3.56508C190.768 9.44174 207.58 30.2126 219.625 59.5131C231.668 88.8059 238.87 126.43 224.646 166.157L229.354 167.843C244.13 126.57 236.582 87.6108 224.25 57.6119C211.92 27.6207 194.732 6.39159 189.949 0.434916L186.051 3.56508ZM224.646 166.157C217.479 186.175 204.544 197.881 188.096 203.875C171.521 209.915 151.22 210.203 129.426 206.935C85.8282 200.398 37.293 179.811 3.00759 164.712L0.992407 169.288C35.207 184.356 84.3282 205.229 128.684 211.88C150.866 215.206 172.116 215.02 189.808 208.573C207.628 202.079 221.677 189.284 229.354 167.843L224.646 166.157ZM0.800266 169.193C54.8587 198.763 128.12 245.328 168.151 292.799C188.204 316.579 199.474 340.066 196.562 361.452C193.676 382.647 176.673 402.849 137.512 419.704L139.488 424.296C179.327 407.151 198.283 385.873 201.516 362.126C204.724 338.57 192.275 313.65 171.974 289.576C131.296 241.338 57.3079 194.404 3.19973 164.807L0.800266 169.193Z" fill="#E0DFFF"/>
</svg>
