<svg width="513" height="511" viewBox="0 0 513 511" fill="none" xmlns="http://www.w3.org/2000/svg">
<path d="M442.146 135.5L441.774 137.972L447.436 138.823L444.211 134.092L442.146 135.5ZM504.5 306L504.791 308.483L512.711 307.554L505.678 303.795L504.5 306ZM353.867 225.5L355.046 223.295L352.481 221.925L351.511 224.665L353.867 225.5ZM273.461 452.5L272.661 454.869L274.995 455.657L275.818 453.335L273.461 452.5ZM128.392 403.5L129.192 401.131L127.879 400.688L126.807 401.567L128.392 403.5ZM0.841581 508.155L21.1555 510.158L23.1584 489.845L2.84451 487.842L0.841581 508.155ZM353.867 6L355.933 4.59185L353.233 0.631368L351.53 5.11185L353.867 6ZM227.5 338.5L225.163 337.612L223.699 341.463L227.791 340.983L227.5 338.5ZM79.1023 83.4722L441.774 137.972L442.517 133.028L79.8453 78.5278L79.1023 83.4722ZM351.511 224.665L271.104 451.665L275.818 453.335L356.224 226.335L351.511 224.665ZM274.261 450.131L129.192 401.131L127.592 405.869L272.661 454.869L274.261 450.131ZM126.807 401.567L10.4142 497.067L13.5858 500.933L129.978 405.433L126.807 401.567ZM505.678 303.795L355.046 223.295L352.689 227.705L503.322 308.205L505.678 303.795ZM351.53 5.11185L225.163 337.612L229.837 339.388L356.204 6.88815L351.53 5.11185ZM227.791 340.983L504.791 308.483L504.209 303.517L227.209 336.017L227.791 340.983ZM444.211 134.092L355.933 4.59185L351.802 7.40815L440.08 136.908L444.211 134.092Z" fill="#CFF0F1"/>
</svg>
