<svg width="1363" height="689" viewBox="0 0 1363 689" fill="none" xmlns="http://www.w3.org/2000/svg">
<path d="M260.643 524.107C222.249 524.107 192.583 546.941 189.091 597.881C185.6 648.824 216.755 684.115 257.154 683.956C295.852 683.803 323.58 656.536 325.216 610.172C327.151 555.301 299.037 524.107 260.643 524.107ZM289.293 607.556C289.006 623.263 282.911 645.684 257.801 646.969C243.67 647.691 223.751 629.831 225.455 604.13C227.156 578.424 236.476 562.741 254.821 562.904C279.032 563.13 289.721 584.423 289.293 607.556ZM616.33 605.061C617.445 603.207 612.106 563.811 609.156 563.422C606.208 563.04 603.999 562.289 602.881 564.134C601.764 565.987 608.955 604.275 609.686 605.766C610.416 607.253 615.213 606.904 616.33 605.061ZM443.024 519.112C436.497 520.452 438.652 601.397 431.672 601.397C424.691 601.397 374.081 515.324 360.117 522.351C346.157 529.375 347.69 665.135 349.124 673.972C349.545 676.565 379.316 677.287 384.551 677.287C389.786 677.287 382.725 600.364 389.705 609.143C396.685 617.931 445.293 681.644 459.258 679.887C473.217 678.128 477.003 529.845 472.027 522.627C467.313 515.799 449.696 517.748 443.024 519.112ZM560.442 557.109C557.269 557.989 552.795 558.963 552.614 562.446C552.314 568.082 578.405 614.537 584.412 617.442C584.412 617.442 588.602 618.43 590.813 612.743C591.616 610.673 562.367 556.572 560.442 557.109ZM469.169 6.65977C442.272 10.043 269.799 405.17 275.024 410.77C280.942 417.114 348.899 419.149 361.42 416.612C367.507 415.379 401.743 305.966 412.89 304.993C428.317 303.646 471.517 304.227 488.327 307.611C498.732 309.706 504.975 409.723 516.42 413.912C531.695 419.503 592.344 413.885 598.62 409.723C612.089 400.78 496.064 3.27552 469.169 6.65977ZM480.783 235.086C466.476 236.657 452.852 234.3 436.042 234.3C419.231 234.3 452.358 159.425 459.082 152.659C465.807 145.889 488.566 234.231 480.783 235.086ZM159.482 416.537C206.258 416.537 343.995 29.205 337.109 20.7413C328.09 9.65442 281.267 -1.86588 273.447 6.21383C256.529 23.6933 179.991 259.959 163.69 259.959C145.308 259.959 81.7866 3.68313 62.0676 3.02145C41.2573 2.32332 10.7358 10.7017 0.73573 24.8537C-10.628 40.9362 112.705 416.537 159.482 416.537ZM1010.78 83.6872C1019.2 77.1493 1021.21 13.6702 1017.51 9.24198C1009.49 -0.334108 947.189 -4.65883 940.176 7.14738C933.064 19.1189 930.09 72.2427 933.455 79.0133C936.816 85.7818 1004.07 88.9 1010.78 83.6872ZM115.393 510.106C50.4173 508.674 33.77 557.758 33.77 607.053C33.77 656.343 59.1396 689 99.9509 689C157.821 689 160.939 653.84 162.117 630.302C162.39 624.82 135.153 623.965 132.107 628.056C129.063 632.139 127.36 656.959 103.966 654.707C78.6459 652.265 75.0793 623.92 74.1822 603.156C73.1974 580.373 81.0349 547.79 110.497 546.26C134.02 545.025 135.827 572.337 134.794 577.477C133.352 584.681 149.334 581.11 162.735 582.411C168.89 583.006 171.067 511.338 115.393 510.106ZM1000.6 410.77C1004.76 403.788 1017.51 136.541 1010.78 129.773C1004.05 123.004 934.703 120.319 931.928 127.301C925.685 143.009 916.081 404.702 919.442 411.468C922.805 418.237 996.023 418.451 1000.6 410.77ZM827.405 650.432C814.102 650.432 847.508 625.969 872.386 602.25C903.971 572.128 884.023 518.585 847.453 513.565C810.879 508.547 772.067 531.93 769.108 534.607C766.151 537.289 766.952 565.987 771.391 568.073C774.276 569.434 818.209 541.005 836.609 549.406C846.849 554.08 845.929 563.091 844.126 573.799C841.175 591.343 778.914 640.186 771.025 648.959C765.377 655.235 766.218 675.277 768.657 682.52C772.069 692.669 881.968 682.52 888.616 680.848C895.265 679.173 893.605 654.073 890.278 647.382C886.951 640.689 840.702 650.432 827.405 650.432ZM984.779 516.5C931.581 515.5 907.65 558.439 911.078 606.727C914.772 658.759 945.117 682.131 978.806 682.914C1030.43 684.115 1052.44 642.749 1053.32 606.615C1054.36 563.676 1036.76 517.478 984.779 516.5ZM986.728 643.271C965.119 646.615 952.942 629.027 953.182 603.882C953.432 577.64 956.9 558.789 982.566 559.487C1012.48 560.3 1014.82 578.158 1014.82 598.237C1014.82 618.317 1008.34 639.922 986.728 643.271ZM862.851 341.196C846.298 338.235 739.57 341.331 732.845 331.175C726.123 321.025 741.649 10.9399 734.926 7.5596C728.2 4.17116 660.01 3.37041 657.762 11.8163C653.413 28.1596 644.315 381.801 651.04 402.105C657.762 422.409 856.125 415.642 862.852 408.874C869.574 402.105 871.232 342.696 862.851 341.196ZM1215.07 4.62235C1127.59 4.62235 1072.74 116.828 1070.5 216.045C1068.97 283.787 1083.95 416.99 1208.34 420.376C1332.74 423.757 1363 287.104 1363 209.275C1363 175.267 1352.91 4.62235 1215.07 4.62235ZM1275.74 214.726C1273.9 273.062 1261.42 328.68 1214.65 329.083C1167.6 327.88 1156.84 276.871 1160.7 218.682C1164.55 160.497 1179.82 108.3 1226.21 109.452C1260.63 110.307 1277.33 164.305 1275.74 214.726ZM631.016 621.557C572.002 618.855 568.452 661.795 570.661 664.752C576.613 672.746 676.178 669.645 677.961 667.459C681.206 663.466 676.573 623.64 631.016 621.557ZM545.032 607.296C542.35 605.952 537.285 608.644 537.285 612.692C537.285 616.743 562.734 638.965 565.451 638.345C567.3 637.926 569.582 634.414 570.349 631.9C570.769 630.517 547.716 608.654 545.032 607.296ZM666.485 616.19C669.769 615.971 689.479 587.725 688.559 585.078C687.933 583.276 686.474 584.237 684.606 583.298C683.32 582.642 662.111 608.644 663.239 611.434C663.999 613.304 664.731 616.307 666.485 616.19ZM716.357 607.382C711.836 606.159 679.365 628.257 679.237 631.517C679.156 633.733 682.383 637.369 684.962 638.996C686.378 639.887 717.733 620.392 720.048 617.771C722.365 615.143 720.879 608.601 716.357 607.382ZM642.439 608.446C646.252 608.133 662.245 545.898 661.097 539.778C661.097 539.778 656.573 538.138 653.356 538.88C650.192 539.6 634.276 605.64 635.29 606.583C637.127 608.284 638.875 608.745 642.439 608.446Z" fill="#353E3C"/>
<path d="M1174 612C1151.2 632 1147 638.5 1124 651.5C1137.3 651.5 1192.37 644.807 1195.69 651.5C1199.02 658.191 1197.65 680.844 1191 682.52C1184.35 684.191 1079.15 692.67 1075.73 682.52C1073.3 675.277 1072.35 657.776 1078 651.5C1085.89 642.727 1148.25 591.343 1151.2 573.799C1153.01 563.091 1147 552 1131.5 552C1107.5 552 1092.03 565.5 1082.5 565.5C1078.06 563.414 1073.23 537.289 1076.19 534.607C1079.15 531.93 1120 512 1155 521.5C1195.69 532.545 1214.02 576.887 1174 612Z" fill="#353E3C"/>
<path d="M1339.13 518.999C1345.78 520.674 1339.33 544.809 1336 551.5C1329.7 553.536 1280 533.25 1256.5 594.5C1284 566.049 1317.85 577.136 1331.75 590.389C1363.34 620.511 1340.78 679.167 1304.21 684.187C1267.64 689.205 1220.81 675.675 1218 638.5C1211.5 552.464 1278.5 503.723 1339.13 518.999ZM1313 619.5C1309.5 606.615 1278 602.5 1257.5 629.5C1255.5 636.5 1247.06 653.499 1297.53 650.44C1307.77 645.766 1315.53 628.805 1313 619.5Z" fill="#353E3C"/>
</svg>
