<svg width="16" height="17" viewBox="0 0 16 17" fill="none" xmlns="http://www.w3.org/2000/svg">
<path fill-rule="evenodd" clip-rule="evenodd" d="M2.71895 0C1.21732 0 0 1.21931 0 2.7234V13.617C0 15.1211 1.21732 16.3404 2.71896 16.3404H13.281C14.7827 16.3404 16 15.1211 16 13.617V2.7234C16 1.21931 14.7827 0 13.281 0H2.71895ZM2.19589 3.65536C2.19589 4.47694 2.81778 5.07734 3.5849 5.07734C4.35213 5.07734 4.97402 4.47694 4.97402 3.65536C4.97402 2.83388 4.35213 2.2328 3.5849 2.2328C2.81778 2.2328 2.19589 2.83388 2.19589 3.65536ZM11.2626 14.0434H13.6719V9.17624C13.6719 6.77247 12.2191 5.9526 10.8747 5.9526C9.63161 5.9526 8.78715 6.77968 8.55399 7.26416V6.17379H6.23694V14.0434H8.64625V9.77676C8.64625 8.63912 9.34705 8.08586 10.062 8.08586C10.7382 8.08586 11.2626 8.47698 11.2626 9.74517V14.0434ZM4.7895 6.16772V14.0373H2.3803V6.16772H4.7895Z" fill="#353E3C"/>
</svg>
