<?xml version="1.0" encoding="utf-8"?>
<!-- Generator: Adobe Illustrator 19.1.0, SVG Export Plug-In . SVG Version: 6.00 Build 0)  -->
<svg version="1.1" id="Layer_1" xmlns="http://www.w3.org/2000/svg" xmlns:xlink="http://www.w3.org/1999/xlink" x="0px" y="0px"
	 viewBox="0 0 656.5217 330.83" enable-background="new 0 0 656.5217 330.83" xml:space="preserve">
<g>
	<g>
		<path fill-rule="evenodd" clip-rule="evenodd" fill="#231F20" d="M145.2202,251.3623c-18.4502,0-32.7055,10.9013-34.3837,35.2207
			c-1.6773,24.3213,13.2939,41.1699,32.707,41.0937c18.5957-0.073,31.9202-13.0905,32.706-35.2256
			C177.1794,266.2547,163.6696,251.3623,145.2202,251.3623z M158.9873,291.2021c-0.1381,7.499-3.0669,18.2031-15.1328,18.8164
			c-6.7905,0.3448-16.3623-8.1816-15.5439-20.4521c0.8178-12.2725,5.2964-19.7598,14.1118-19.6817
			C154.0567,269.9922,159.1929,280.1582,158.9873,291.2021z M312.1407,290.0108c0.5356-0.8848-2.0298-19.6933-3.4473-19.8789
			c-1.417-0.1826-2.4785-0.541-3.0156,0.3399c-0.5367,0.8846,2.9189,19.164,3.27,19.8759
			C309.2985,291.0576,311.604,290.8907,312.1407,290.0108z M232.8609,248.9776c-3.1367,0.6396-2.1011,39.2842-5.4551,39.2842
			c-3.355,0-27.6748-41.0928-34.3848-37.7383c-6.7085,3.3535-5.9717,68.168-5.2827,72.3867
			c0.2022,1.2383,14.5083,1.583,17.0239,1.583c2.5157,0-0.8774-36.7246,2.4766-32.5332
			c3.3545,4.1953,26.7124,34.6133,33.4229,33.7744c6.708-0.8398,8.5273-71.6328,6.1362-75.0791
			C244.5327,247.3955,236.067,248.3261,232.8609,248.9776z M285.2842,267.1181c-1.5244,0.42-3.6743,0.8848-3.7617,2.5479
			c-0.1441,2.6904,12.394,24.8691,15.2803,26.2558c0,0,2.0136,0.4717,3.0761-2.2431
			C300.2647,292.6905,286.2095,266.8614,285.2842,267.1181z M226.4243,4.3233c-12.9248,1.6152-95.8046,190.2559-93.2939,192.9297
			c2.8439,3.0286,35.5,4,41.5166,2.7891c2.9248-0.5886,19.3765-52.8243,24.7334-53.2891c7.4131-0.6432,28.1721-0.3656,36.25,1.25
			c5,1,8,48.75,13.5,50.75c7.34,2.6691,36.4839-0.0127,39.5-2C295.1026,192.4834,239.3482,2.7076,226.4243,4.3233z
			 M232.0054,113.378c-6.875,0.75-13.4219-0.375-21.5-0.375c-8.0781,0,7.8408-35.7466,11.0718-38.9771
			C224.8087,70.7939,235.7454,112.9699,232.0054,113.378z M77.6082,200.0063c22.4778,0,88.6655-184.9195,85.3566-188.9602
			c-4.3343-5.2931-26.8343-10.7931-30.5922-6.9357c-8.1297,8.345-44.9088,121.1426-52.7421,121.1426
			c-8.8333,0-39.3576-122.3508-48.8333-122.6667C20.7971,2.253,6.1304,6.253,1.325,13.0094
			C-4.1357,20.6875,55.1304,200.0063,77.6082,200.0063z M486.689,41.0976c4.0452-3.1213,5.013-33.4274,3.2314-35.5415
			c-3.8528-4.5718-33.79-6.6365-37.1601-1c-3.4173,5.7154-4.8467,31.0777-3.2295,34.3101
			C451.146,42.0976,483.4637,43.5863,486.689,41.0976z M75.4219,244.6778c-31.2231-0.6836-39.2227,22.75-39.2227,46.2842
			c0,23.5322,12.191,39.123,31.8023,39.123c27.8086,0,29.3071-16.7861,29.873-28.0234c0.1314-2.6172-12.957-3.0254-14.4209-1.0723
			c-1.4628,1.9492-2.2812,13.7989-13.5229,12.7237c-12.167-1.1661-13.8809-14.6983-14.312-24.6114
			c-0.4732-10.8769,3.293-26.4326,17.4507-27.1631c11.3036-0.5898,12.1718,12.4493,11.6757,14.9034
			c-0.6933,3.4394,6.9869,1.7343,13.4263,2.3554C101.1295,279.4814,102.1754,245.2657,75.4219,244.6778z M481.7971,197.253
			c2-3.3333,8.1233-130.9219,4.8919-134.1533c-3.2324-3.2315-36.5586-4.5134-37.8919-1.18
			c-2.9998,7.4994-7.6152,132.4361-6,135.6666C444.4133,200.8177,479.5969,200.92,481.7971,197.253z M416.5699,311.6718
			c-6.3926,0,9.6601-11.6787,21.6152-23.0029c15.1777-14.3808,5.5918-39.9433-11.9815-42.3398
			c-17.5752-2.3955-36.2255,8.7676-37.6474,10.0459c-1.4209,1.2802-1.0362,14.9814,1.0967,15.9775
			c1.3867,0.6494,22.498-12.9229,31.3398-8.9121c4.9209,2.2314,4.4785,6.5332,3.6123,11.6455
			c-1.418,8.376-31.3369,31.6943-35.1279,35.8828c-2.7139,2.9962-2.3096,12.5645-1.1377,16.0225
			c1.6396,4.8457,54.4502,0,57.6445-0.7979c3.1953-0.7998,2.3975-12.7832,0.7988-15.9775
			C445.1841,307.0205,422.9595,311.6718,416.5699,311.6718z M492.1939,247.7304c-25.5635-0.4775-37.0635,20.0225-35.416,43.0762
			c1.7752,24.8406,16.3568,35.999,32.5459,36.373c24.8066,0.5732,35.3858-19.1758,35.8066-36.4268
			C525.6304,270.253,517.1725,248.1971,492.1939,247.7304z M493.1304,308.253c-10.3838,1.5967-16.2352-6.8001-16.1201-18.8047
			c0.1201-12.5286,1.7868-21.5286,14.1201-21.1953c14.3737,0.3885,15.5,8.914,15.5,18.5
			C506.6304,296.3399,503.5151,306.6543,493.1304,308.253z M551.3023,242.3144c-2.1201,0.424-15.3242,6.0293-20.3448,9.9865
			c-1.9912,1.5663,0.0459,7.9199,1.1719,8.3876c1.125,0.4688,9.5879-3.1962,11.1846,0.7999c1.5977,3.9941,0,59.1132,0,62.3066
			c0,3.1963,13.5791,4.7939,17.5732,2.3984c3.9942-2.3984,1.5987-82.2812-0.7968-83.8789
			C557.6929,240.7177,555.2964,241.5146,551.3023,242.3144z M415.6031,164.0371c-7.9544-1.4138-59.2412,0.0645-62.4727-4.7842
			c-3.2304-4.8457,4.2304-152.8862,1-154.5c-3.2324-1.6177-36-2-37.0801,2.0322c-2.0901,7.8026-6.4619,176.6377-3.2303,186.3311
			c3.2303,9.6933,98.5507,6.4629,101.7832,3.2314C418.8335,193.1162,419.6304,164.753,415.6031,164.0371z M584.856,3.3506
			c-42.0352,0-68.3923,53.569-69.4697,100.937c-0.7357,32.3412,6.463,95.935,66.2382,97.5512
			c59.7774,1.6143,74.3184-63.6264,74.3184-100.7832C655.9429,84.8194,651.0952,3.3506,584.856,3.3506z M614.01,103.6579
			c-0.8841,27.8509-6.8777,54.4039-29.3538,54.5961c-22.6111-0.5743-27.7796-24.927-25.927-52.7076
			c1.8516-27.7784,9.1898-52.6981,31.4827-52.148C606.7502,53.8064,614.7742,79.5859,614.01,103.6579z M319.1978,297.8867
			c-28.3584-1.29-30.0645,19.21-29.0029,20.6221c2.8603,3.8164,50.705,2.3359,51.5615,1.2921
			C343.3159,317.8946,341.0894,298.8808,319.1978,297.8867z M277.8795,291.0782c-1.289-0.6416-3.7231,0.6436-3.7231,2.5762
			c0,1.9336,12.2295,12.5429,13.5351,12.247c0.8882-0.2002,1.9849-1.8769,2.3536-3.0771
			C290.2471,302.164,279.169,291.7265,277.8795,291.0782z M336.2417,295.3242c1.5782-0.1045,11.0498-13.5899,10.6075-14.8535
			c-0.3008-0.8604-1.002-0.4014-1.8995-0.8496c-0.6181-0.3135-10.8095,12.1006-10.2675,13.4326
			C335.0474,293.9463,335.399,295.38,336.2417,295.3242z M360.2075,291.1192c-2.1728-0.584-17.7763,9.9658-17.8378,11.5225
			c-0.0391,1.0576,1.5117,2.7939,2.7509,3.5703c0.6807,0.4258,15.7481-8.8819,16.8604-10.1328
			C363.0943,294.8242,362.3804,291.7011,360.2075,291.1192z M324.687,291.6269c1.8321-0.1494,9.5176-29.8613,8.9659-32.7832
			c0,0-2.1739-0.7832-3.7198-0.4286c-1.5205,0.3438-9.1689,31.8721-8.6816,32.3223
			C322.1343,291.5498,322.9742,291.7696,324.687,291.6269z"/>
	</g>
</g>
<path fill="#231F20" d="M637.9787,293.9837c-2.304-15.743-17.0583-20.3069-30.9116-18.6793
	c4.6603-6.507,9.7017-13.7146,14.73-19.8014c1.5833-1.9167,2.2708-7.5-0.2292-10c-5.5-9.625-9.0461-5.1642-12.1347-1.4731
	c-12.6083,15.0674-25.2189,30.4904-31.9353,49.2151c-3.3131,9.2366-4.516,20.3435,2.8059,28.1622
	c6.1161,6.5314,17.4299,8.2033,25.8812,8.7929c10.4842,0.7316,19.6946-3.0593,25.6699-11.8916
	C636.5949,311.3023,639.2096,302.3956,637.9787,293.9837z M615.4637,313.253c-3.3412,2.4094-11.3333,4-16.3333,0.3333
	c-5-3.6666-5.1383-9.6173-4-12.6666c2.0745-5.5573,6.6231-9.6821,12-10.3334c3.1041-0.376,10.9019,0.1895,13.6667,6.3334
	C623.7971,303.5863,619.7013,310.1972,615.4637,313.253z"/>
</svg>
